HIERARCHY
ROOT reference
{
  OFFSET 0 0 0
  CHANNELS 6 Xposition Yposition Zposition Zrotation Xrotation Yrotation
  JOINT Hips
  {
    OFFSET 1.74901 79.0106 79.3559
    CHANNELS 6 Xposition Yposition Zposition Zrotation Xrotation Yrotation
    JOINT Spine
    {
      OFFSET 0 7.88368 0
      CHANNELS 6 Xposition Yposition Zposition Zrotation Xrotation Yrotation
      JOINT Spine1
      {
        OFFSET 0 24.7763 0
        CHANNELS 6 Xposition Yposition Zposition Zrotation Xrotation Yrotation
        JOINT Neck
        {
          OFFSET 0 24.6746 2.24314
          CHANNELS 6 Xposition Yposition Zposition Zrotation Xrotation Yrotation
          JOINT Head
          {
            OFFSET 0 13.4599 -1.92285
            CHANNELS 6 Xposition Yposition Zposition Zrotation Xrotation Yrotation
            End Site
            {
              OFFSET 0 24.0356 0
            }
          }
        }
        JOINT LeftShoulder
        {
          OFFSET 3.81022 22.3233 -0.325006
          CHANNELS 6 Xposition Yposition Zposition Zrotation Xrotation Yrotation
          JOINT LeftArm
          {
            OFFSET 12.5606 0 0
            CHANNELS 6 Xposition Yposition Zposition Zrotation Xrotation Yrotation
            JOINT LeftForeArm
            {
              OFFSET 28.8068 0 0
              CHANNELS 6 Xposition Yposition Zposition Zrotation Xrotation Yrotation
              JOINT LeftHand
              {
                OFFSET 23.8139 0 0
                CHANNELS 6 Xposition Yposition Zposition Zrotation Xrotation Yrotation
                End Site
                {
                  OFFSET 14.4214 0 0
                }
              }
            }
          }
        }
        JOINT RightShoulder
        {
          OFFSET -3.82306 22.3233 -0.325006
          CHANNELS 6 Xposition Yposition Zposition Zrotation Xrotation Yrotation
          JOINT RightArm
          {
            OFFSET -12.5606 0 0
            CHANNELS 6 Xposition Yposition Zposition Zrotation Xrotation Yrotation
            JOINT RightForeArm
            {
              OFFSET -28.8068 0 0
              CHANNELS 6 Xposition Yposition Zposition Zrotation Xrotation Yrotation
              JOINT RightHand
              {
                OFFSET -23.8139 0 0
                CHANNELS 6 Xposition Yposition Zposition Zrotation Xrotation Yrotation
                End Site
                {
                  OFFSET -14.4214 0 0
                }
              }
            }
          }
        }
      }
    }
    JOINT LeftUpLeg
    {
      OFFSET 9.61425 0 0
      CHANNELS 6 Xposition Yposition Zposition Zrotation Xrotation Yrotation
      JOINT LeftLeg
      {
        OFFSET 0 -41.4642 0
        CHANNELS 6 Xposition Yposition Zposition Zrotation Xrotation Yrotation
        JOINT LeftFoot
        {
          OFFSET 0 -34.276 0
          CHANNELS 6 Xposition Yposition Zposition Zrotation Xrotation Yrotation
          JOINT LeftToeBase
          {
            OFFSET 0 -6.24926 14.4214
            CHANNELS 6 Xposition Yposition Zposition Zrotation Xrotation Yrotation
            End Site
            {
              OFFSET 0 0 3.8457
            }
          }
        }
      }
    }
    JOINT RightUpLeg
    {
      OFFSET -9.61425 0 0
      CHANNELS 6 Xposition Yposition Zposition Zrotation Xrotation Yrotation
      JOINT RightLeg
      {
        OFFSET 0 -41.4642 0
        CHANNELS 6 Xposition Yposition Zposition Zrotation Xrotation Yrotation
        JOINT RightFoot
        {
          OFFSET 0 -34.276 0
          CHANNELS 6 Xposition Yposition Zposition Zrotation Xrotation Yrotation
          JOINT RightToeBase
          {
            OFFSET 0 -6.24926 14.4214
            CHANNELS 6 Xposition Yposition Zposition Zrotation Xrotation Yrotation
            End Site
            {
              OFFSET 0 0 3.8457
            }
          }
        }
      }
    }
  }
}
MOTION
Frames:	10
Frame Time:	0.004
0 0 0 0 0 -0 -10.9224 92.2529 -109.254 6.72476 -11.5176 -0.348703 2.22045e-015 7.88368 0 -3.12248 13.3641 8.89812 0 24.7763 -1.42109e-014 -1.26167 -8.59113 8.43751 -3.55271e-015 24.6746 2.24314 3.03978 2.53578 -5.94669 0 13.4599 -1.92285 -3.2562 -1.79025 -7.08354 3.81022 22.3233 -0.325006 3.25453 11.8117 14.4499 12.5606 2.84217e-014 0 -48.9925 9.49867 10.0755 28.8068 0 0 7.92066 -2.37721 -15.5609 23.8139 0 0 -13.5504 -1.08142 -1.78549 -3.82306 22.3233 -0.325006 -7.51374 1.42951 5.59007 -12.5606 2.84217e-014 -1.42109e-014 63.1621 30.6765 20.7255 -28.8068 -1.42109e-014 0 -12.8024 -14.6678 72.602 -23.8139 -1.42109e-014 0 -1.14746 -5.31653 -3.99675 9.61425 0 0 2.48024 -28.4928 7.74561 0 -41.4642 1.42109e-014 -169.714 59.981 161.14 0 -34.276 0 -0.660417 -12.2018 26.2534 0 -6.24926 14.4214 0 0 -7.95139e-016 -9.61425 1.42109e-014 1.42109e-014 -5.6485 13.4826 -4.35941 0 -41.4642 0 2.13827 -0.111756 -4.71563 -1.42109e-014 -34.276 -1.42109e-014 7.18526 26.7944 -9.67394 0 -6.24926 14.4214 -1.76556e-031 3.18055e-015 3.18055e-015 
0 0 0 0 0 -0 -10.8088 92.5233 -108.915 6.78645 -11.583 -0.591626 1.33227e-015 7.88368 0 -3.19948 13.221 8.97778 0 24.7763 -1.42109e-014 -1.1306 -8.3692 8.52423 0 24.6746 2.24314 2.96047 2.48776 -5.86521 -7.10543e-015 13.4599 -1.92285 -3.44364 -1.73974 -7.01814 3.81022 22.3233 -0.325006 3.07824 12.0136 14.5408 12.5606 0 0 -48.6489 9.31922 10.0109 28.8068 0 0 8.10228 -2.69838 -15.619 23.8139 0 0 -13.672 -1.38163 -1.70323 -3.82306 22.3233 -0.325006 -7.70424 1.50071 5.6092 -12.5606 0 -1.42109e-014 62.752 30.4629 21.2252 -28.8068 -1.42109e-014 0 -12.6348 -14.8911 73.8797 -23.8139 1.42109e-014 0 -1.54362 -5.43367 -4.27497 9.61425 0 0 2.21893 -28.461 7.74108 0 -41.4642 1.42109e-014 -169.959 60.4471 161.329 1.77636e-015 -34.276 1.42109e-014 -0.842401 -12.6627 26.4512 0 -6.24926 14.4214 3.18055e-015 0 7.95139e-016 -9.61425 0 1.42109e-014 -5.74933 13.447 -4.58645 0 -41.4642 0 2.04817 0.210335 -4.78247 0 -34.276 0 7.27348 26.7471 -9.46671 0 -6.24926 14.4214 0 0 -3.18055e-015 
0 0 0 0 0 -0 -10.6927 92.7788 -108.57 6.86102 -11.6275 -0.833086 2.44249e-015 7.88368 -1.42109e-014 -3.26782 13.07 9.04327 0 24.7763 1.42109e-014 -1.0448 -8.15313 8.59442 0 24.6746 2.24314 2.80678 2.38599 -5.7938 0 13.4599 -1.92285 -3.47032 -1.64192 -6.92838 3.81022 22.3233 -0.325006 3.16404 11.9329 14.4845 12.5606 0 -1.42109e-014 -48.6047 9.2819 10.3074 28.8068 0 0 8.41394 -2.87281 -15.5603 23.8139 -2.84217e-014 0 -13.5088 -1.50364 -1.84194 -3.82306 22.3233 -0.325006 -7.83095 1.38299 5.72975 -12.5606 -2.84217e-014 0 62.4736 30.3555 21.4442 -28.8068 0 0 -12.6306 -15.2802 75.1566 -23.8139 0 0 -1.58737 -5.60976 -4.49926 9.61425 -1.42109e-014 -1.42109e-014 1.93596 -28.4486 7.7611 0 -41.4642 -7.10543e-015 -169.995 61.0134 162.034 -1.77636e-015 -34.276 0 -0.779802 -12.7076 26.5345 -7.10543e-015 -6.24926 14.4214 -1.32417e-031 -3.18055e-015 -2.38542e-015 -9.61425 0 -1.42109e-014 -5.84496 13.3859 -4.8044 3.55271e-015 -41.4642 0 1.96066 0.604307 -4.77639 0 -34.276 1.42109e-014 7.02333 26.4096 -9.02675 -7.10543e-015 -6.24926 14.4214 1.59028e-015 0 3.18055e-015 
0 0 0 0 0 -0 -10.5698 93.0137 -108.214 6.94894 -11.7113 -1.0508 1.9984e-015 7.88368 0 -3.32883 12.9392 9.11256 -1.77636e-015 24.7763 1.42109e-014 -0.996078 -7.927 8.66602 0 24.6746 2.24314 2.70793 2.31936 -5.72855 -7.10543e-015 13.4599 -1.92285 -3.51683 -1.57057 -6.85473 3.81022 22.3233 -0.325006 3.04757 12.1162 14.5476 12.5606 0 -1.42109e-014 -48.2459 8.68884 10.1855 28.8068 0 0 8.64832 -2.89243 -15.4939 23.8139 0 0 -13.4395 -1.49056 -1.89926 -3.82306 22.3233 -0.325006 -7.92027 1.30954 5.85015 -12.5606 -5.68434e-014 0 62.1441 30.2181 21.6764 -28.8068 2.13163e-014 7.10543e-015 -12.6305 -15.6628 76.4194 -23.8139 0 1.42109e-014 -1.69739 -5.77184 -4.74689 9.61425 1.42109e-014 0 1.63386 -28.3309 7.54702 0 -41.4642 -1.42109e-014 -169.64 61.581 162.186 0 -34.276 0 -0.805218 -13.0841 26.3859 0 -6.24926 14.4214 -0 0 2.38542e-015 -9.61425 -1.42109e-014 0 -5.93822 13.3637 -5.059 3.55271e-015 -41.4642 0 1.78841 0.947006 -4.83872 7.10543e-015 -34.276 0 6.89524 26.1837 -8.37427 0 -6.24926 14.4214 -1.59028e-015 -3.18055e-015 -0 
0 0 0 0 0 -0 -10.4617 93.2251 -107.858 7.02707 -11.8226 -1.2623 8.88178e-016 7.88368 0 -3.42425 12.8335 9.1533 1.77636e-015 24.7763 0 -0.859637 -7.6909 8.71036 -3.55271e-015 24.6746 2.24314 2.52726 2.27269 -5.65356 0 13.4599 -1.92285 -3.53702 -1.53937 -6.75694 3.81022 22.3233 -0.325006 3.13343 12.0582 14.516 12.5606 2.84217e-014 -1.42109e-014 -48.197 8.37845 10.4346 28.8068 -2.84217e-014 2.84217e-014 8.91528 -3.07016 -15.4853 23.8139 0 0 -13.4236 -1.6412 -1.82913 -3.82306 22.3233 -0.325006 -8.09796 1.25268 6.05415 -12.5606 0 1.42109e-014 61.8584 30.0029 21.9576 -28.8068 -1.42109e-014 0 -12.6167 -16.0084 77.6355 -23.8139 0 0 -1.69003 -5.91644 -5.01173 9.61425 0 0 1.35537 -28.2388 7.59537 1.77636e-015 -41.4642 -7.10543e-015 -169.682 62.2586 163.465 1.77636e-015 -34.276 0 -0.998584 -13.0825 25.946 7.10543e-015 -6.24926 14.4214 8.82781e-032 6.36111e-015 -7.95139e-016 -9.61425 0 0 -6.01929 13.3777 -5.21999 -7.10543e-015 -41.4642 0 1.65787 1.26287 -4.84114 -7.10543e-015 -34.276 1.42109e-014 7.07189 25.8586 -8.11326 7.10543e-015 -6.24926 14.4214 -3.53113e-031 6.36111e-015 3.18055e-015 
0 0 0 0 0 -0 -10.3507 93.4188 -107.504 7.12037 -11.913 -1.4814 -4.44089e-016 7.88368 1.42109e-014 -3.50415 12.719 9.20779 1.77636e-015 24.7763 -1.42109e-014 -0.80635 -7.46127 8.76461 3.55271e-015 24.6746 2.24314 2.43173 2.19694 -5.58887 0 13.4599 -1.92285 -3.60732 -1.52407 -6.68954 3.81022 22.3233 -0.325006 3.03903 12.1817 14.5831 12.5606 -5.68434e-014 -1.42109e-014 -47.9146 8.34535 10.4813 28.8068 -2.84217e-014 0 9.0997 -3.44575 -15.5642 23.8139 2.84217e-014 0 -13.539 -1.97759 -1.88068 -3.82306 22.3233 -0.325006 -8.19473 1.16919 6.20041 -12.5606 2.84217e-014 0 61.5983 30.1231 22.2325 -28.8068 -2.84217e-014 0 -12.9799 -16.7607 78.6513 -23.8139 0 1.42109e-014 -1.49785 -6.21331 -5.18825 9.61425 0 1.42109e-014 1.05478 -28.1202 7.61187 -1.77636e-015 -41.4642 -7.10543e-015 -169.688 62.9376 164.312 1.77636e-015 -34.276 0 -1.09587 -13.2839 25.5111 0 -6.24926 14.4214 -3.18055e-015 3.18055e-015 -2.38542e-015 -9.61425 0 1.42109e-014 -6.08773 13.3629 -5.41989 0 -41.4642 0 1.45207 1.56774 -4.78711 -7.10543e-015 -34.276 0 7.25381 25.5691 -7.63733 0 -6.24926 14.4214 -1.59028e-015 0 -3.18055e-015 
0 0 0 0 0 -0 -10.242 93.5947 -107.144 7.22288 -12.0254 -1.6579 -4.44089e-016 7.88368 0 -3.60554 12.5936 9.23184 1.77636e-015 24.7763 1.42109e-014 -0.709011 -7.17728 8.78945 0 24.6746 2.24314 2.27535 2.09717 -5.51279 0 13.4599 -1.92285 -3.60847 -1.47854 -6.59111 3.81022 22.3233 -0.325006 3.2036 12.0995 14.5713 12.5606 2.84217e-014 1.42109e-014 -47.9076 7.78445 10.6427 28.8068 0 0 9.35807 -3.41419 -15.4439 23.8139 0 0 -13.084 -1.91952 -1.95515 -3.82306 22.3233 -0.325006 -8.33032 1.06229 6.36108 -12.5606 0 0 61.2623 29.9302 22.5657 -28.8068 -1.42109e-014 -7.10543e-015 -12.9304 -17.1052 79.7838 -23.8139 0 0 -1.44907 -6.39609 -5.314 9.61425 -1.42109e-014 0 0.759301 -27.9677 7.58111 0 -41.4642 7.10543e-015 -169.746 63.5879 164.614 0 -34.276 0 -1.15185 -13.4933 25.925 0 -6.24926 14.4214 -6.36111e-015 -3.18055e-015 2.38542e-015 -9.61425 0 0 -6.1995 13.4021 -5.43637 0 -41.4642 0 1.34825 1.82464 -4.68442 0 -34.276 0 7.30311 25.1948 -7.18489 0 -6.24926 14.4214 3.18055e-015 0 3.18055e-015 
0 0 0 0 0 -0 -10.1194 93.7613 -106.755 7.3039 -12.2504 -1.83121 -8.88178e-016 7.88368 1.42109e-014 -3.67209 12.566 9.2602 -1.77636e-015 24.7763 -1.42109e-014 -0.60644 -6.86784 8.81944 3.55271e-015 24.6746 2.24314 2.13138 1.99208 -5.42931 -3.55271e-015 13.4599 -1.92285 -3.66505 -1.46641 -6.49603 3.81022 22.3233 -0.325006 3.15311 12.0811 14.6329 12.5606 0 0 -47.6931 7.449 10.7554 28.8068 0 0 9.58424 -3.59769 -15.5066 23.8139 0 0 -13.0631 -2.07662 -1.87409 -3.82306 22.3233 -0.325006 -8.50402 1.02044 6.4363 -12.5606 0 1.42109e-014 60.9093 29.7423 22.9731 -28.8068 -7.10543e-015 7.10543e-015 -12.9248 -17.4085 80.8892 -23.8139 0 1.42109e-014 -1.31496 -6.50611 -5.4448 9.61425 0 1.42109e-014 0.4113 -27.6463 7.56462 0 -41.4642 0 -169.689 64.3853 165.712 0 -34.276 0 -1.61234 -14.0345 25.642 0 -6.24926 14.4214 6.36111e-015 0 -1.59028e-015 -9.61425 1.42109e-014 1.42109e-014 -6.31414 13.5862 -5.41786 0 -41.4642 1.42109e-014 1.30371 2.03084 -4.67563 0 -34.276 1.42109e-014 7.31997 24.8128 -6.69191 0 -6.24926 14.4214 1.59028e-015 -3.18055e-015 -3.18055e-015 
0 0 0 0 0 -0 -10.0264 93.8992 -106.402 7.35151 -12.3569 -2.06968 1.33227e-015 7.88368 1.42109e-014 -3.70762 12.4491 9.29329 -1.77636e-015 24.7763 0 -0.584128 -6.61038 8.85509 0 24.6746 2.24314 2.02959 1.89436 -5.34718 7.10543e-015 13.4599 -1.92285 -3.65518 -1.41389 -6.39595 3.81022 22.3233 -0.325006 3.21451 12.0795 14.6788 12.5606 0 0 -47.5001 6.89295 10.8376 28.8068 -2.84217e-014 0 9.7511 -3.70316 -15.5064 23.8139 0 -2.84217e-014 -13.1459 -2.16095 -1.84874 -3.82306 22.3233 -0.325006 -8.54796 0.946156 6.64725 -12.5606 -2.84217e-014 0 60.5758 29.6063 23.2703 -28.8068 7.10543e-015 0 -13.0194 -17.8721 81.9523 -23.8139 -1.42109e-014 -1.42109e-014 -1.15474 -6.70184 -5.59589 9.61425 -1.42109e-014 1.42109e-014 0.186719 -27.462 7.6407 0 -41.4642 -1.42109e-014 -169.769 65.1204 166.505 0 -34.276 0 -1.14783 -13.7606 25.2693 -7.10543e-015 -6.24926 14.4214 -3.18055e-015 -3.18055e-015 -0 -9.61425 0 1.42109e-014 -6.359 13.6235 -5.1843 0 -41.4642 0 1.2317 2.19844 -4.85882 0 -34.276 0 7.33732 24.5125 -6.13872 0 -6.24926 14.4214 -0 0 3.18055e-015 
0 0 0 0 0 -0 -9.94047 94.0217 -106.024 7.4049 -12.4776 -2.25628 1.77636e-015 7.88368 -1.42109e-014 -3.86407 12.3445 9.3243 0 24.7763 1.42109e-014 -0.318033 -6.37055 8.88863 0 24.6746 2.24314 1.78661 1.86354 -5.26971 0 13.4599 -1.92285 -3.6344 -1.49498 -6.28319 3.81022 22.3233 -0.325006 3.14388 12.111 14.7861 12.5606 2.84217e-014 -1.42109e-014 -47.3115 6.54063 10.8799 28.8068 0 0 9.90431 -3.9012 -15.4835 23.8139 0 -1.42109e-014 -12.9728 -2.34118 -1.86569 -3.82306 22.3233 -0.325006 -8.7595 0.812799 6.81202 -12.5606 2.84217e-014 0 60.2829 29.4119 23.5533 -28.8068 2.13163e-014 0 -12.9833 -18.1138 83.1194 -23.8139 -1.42109e-014 -2.84217e-014 -1.36376 -6.73639 -5.89477 9.61425 0 0 -0.0447081 -27.2669 7.73349 0 -41.4642 -7.10543e-015 -170.061 65.8006 166.396 0 -34.276 0 -0.89736 -14.081 26.1336 0 -6.24926 14.4214 -6.36111e-015 3.18055e-015 -4.77083e-015 -9.61425 1.42109e-014 -1.42109e-014 -6.38237 13.7135 -4.98108 7.10543e-015 -41.4642 0 1.15919 2.27959 -5.02358 0 -34.276 0 7.1883 24.2839 -5.40395 0 -6.24926 14.4214 1.59028e-015 -6.36111e-015 -0 
